<svg width="227" height="227" viewBox="0 0 227 227" fill="none" xmlns="http://www.w3.org/2000/svg">
<g clip-path="url(#clip0_76_75)">
<circle cx="113.357" cy="113.614" r="113.54" fill="#0090FF"/>
<path d="M113.357 36.5488C117.092 36.5489 120.121 39.5772 120.121 43.3125C120.12 46.2113 118.296 48.6824 115.733 49.6445V83.6396H123.97C125.61 82.617 127.751 81.2318 130.014 79.627C132.443 77.9046 134.986 75.9517 137.195 73.9453C139.429 71.9156 141.203 69.9385 142.215 68.1826C144.673 63.9197 148.474 58.5178 151.617 54.2354C153.086 52.2324 154.428 50.4557 155.44 49.1279C155.094 48.3153 154.902 47.4213 154.902 46.4824C154.902 42.7472 157.93 39.719 161.666 39.7188C165.401 39.7188 168.429 42.7471 168.429 46.4824C168.429 50.2177 165.401 53.2461 161.666 53.2461C160.63 53.246 159.649 53.0117 158.772 52.5957C157.84 53.8236 156.69 55.3536 155.448 57.0469C152.316 61.3155 148.649 66.5367 146.332 70.5557C144.956 72.9405 142.762 75.3067 140.389 77.4619C137.99 79.6406 135.283 81.7156 132.762 83.5029C132.697 83.549 132.632 83.5939 132.567 83.6396H151.838C155.152 83.6396 157.839 86.3252 157.839 89.6387V92.3311L165.666 86.3398C165.615 86.0058 165.588 85.6637 165.588 85.3154C165.588 81.5801 168.617 78.5518 172.352 78.5518C176.087 78.5521 179.115 81.5803 179.115 85.3154C179.115 89.0506 176.087 92.0788 172.352 92.0791C170.708 92.0791 169.2 91.4914 168.028 90.5156L157.839 98.3154V109.306H177.25C178.212 106.743 180.685 104.918 183.583 104.918C187.319 104.918 190.347 107.946 190.347 111.682C190.347 115.417 187.319 118.445 183.583 118.445C180.684 118.445 178.212 116.621 177.25 114.058H157.839V132.142C157.839 132.494 157.807 132.839 157.749 133.175L163.875 135.249C165.077 134.154 166.675 133.486 168.429 133.486C172.164 133.486 175.193 136.515 175.193 140.25C175.193 143.985 172.164 147.013 168.429 147.013C164.694 147.013 161.667 143.985 161.667 140.25C161.667 140.007 161.679 139.767 161.704 139.53L154.979 137.254C154.066 137.816 152.991 138.142 151.839 138.143H115.733V139.038C115.748 139.175 115.765 139.334 115.785 139.514C115.86 140.197 115.972 141.181 116.116 142.379C116.404 144.777 116.821 148.028 117.337 151.444C117.655 153.548 117.97 154.99 118.783 156.363C119.589 157.726 121.024 159.236 123.962 161.082C130.038 164.898 138.582 168.579 145.709 171.331C149.253 172.699 152.409 173.823 154.678 174.604C155.812 174.995 156.725 175.301 157.351 175.508H157.352C158.523 174.537 160.027 173.954 161.667 173.954C165.401 173.954 168.429 176.982 168.429 180.717C168.429 184.452 165.402 187.48 161.667 187.48C157.931 187.48 154.903 184.452 154.903 180.717C154.903 180.379 154.928 180.047 154.976 179.723C154.453 179.547 153.833 179.339 153.13 179.097C150.82 178.301 147.608 177.156 143.999 175.763C136.82 172.991 127.918 169.177 121.435 165.104C118.876 163.497 117.045 161.938 115.733 160.285V177.582C118.296 178.544 120.12 181.016 120.12 183.915C120.12 187.65 117.092 190.679 113.357 190.679C109.622 190.679 106.593 187.65 106.593 183.915C106.593 181.016 108.418 178.544 110.981 177.582V142.542C110.978 142.547 110.975 142.552 110.972 142.557C109.313 145.135 106.868 148.432 104.064 150.345C100.904 152.5 97.8843 152.867 95.2163 153.077C92.5161 153.289 90.3236 153.353 87.8511 154.431C82.7871 156.638 80.141 158.295 76.02 161.943C73.1809 164.457 70.2572 168.547 67.9819 172.162C67.1279 173.519 66.3828 174.779 65.7886 175.819C67.0825 177.051 67.8901 178.789 67.8901 180.717C67.8901 184.452 64.8625 187.48 61.1274 187.48C57.3921 187.48 54.3638 184.452 54.3638 180.717C54.3639 176.982 57.3922 173.954 61.1274 173.954C61.2131 173.954 61.2984 173.957 61.3833 173.96C62.0446 172.787 62.9249 171.278 63.9614 169.631C66.2766 165.952 69.4969 161.374 72.8716 158.387C77.3803 154.396 80.4522 152.473 85.9536 150.075C89.3122 148.612 92.4051 148.533 94.8442 148.341C97.3154 148.146 99.2921 147.848 101.387 146.419C103.351 145.079 105.368 142.485 106.977 139.985C107.397 139.333 107.775 138.708 108.104 138.143H77.7222C75.794 138.143 74.0786 137.232 72.981 135.818C70.3848 136.468 67.0785 137.512 64.3823 138.407C63.9927 138.537 63.6169 138.664 63.2593 138.784C63.3636 139.256 63.4214 139.747 63.4214 140.25C63.4212 143.985 60.3929 147.013 56.6577 147.013C52.9226 147.013 49.8952 143.985 49.895 140.25C49.895 136.515 52.9225 133.486 56.6577 133.486C58.093 133.486 59.4233 133.935 60.5181 134.697C61.2083 134.46 62.0125 134.187 62.8853 133.897C65.5683 133.006 68.9623 131.933 71.7222 131.236V114.058H49.4644C48.5024 116.621 46.0303 118.445 43.1313 118.445C39.396 118.445 36.3677 115.417 36.3677 111.682C36.3677 107.946 39.3961 104.918 43.1313 104.918C46.0303 104.918 48.5024 106.743 49.4644 109.306H71.7222V100.752L58.3706 90.7627C57.249 91.5891 55.8638 92.079 54.3638 92.0791C50.6285 92.0791 47.6001 89.0507 47.6001 85.3154C47.6001 81.5801 50.6284 78.5518 54.3638 78.5518C58.0989 78.5519 61.1274 81.5802 61.1274 85.3154C61.1274 85.8155 61.0703 86.3024 60.9673 86.7715L71.7222 94.8174V89.6396C71.7222 86.3261 74.4077 83.6399 77.7212 83.6396H105.244C105.058 83.2208 104.868 82.7943 104.673 82.3652C103.718 80.2637 102.674 78.1224 101.672 76.3643C101.172 75.485 100.699 74.7331 100.271 74.1436C99.8229 73.5262 99.5079 73.2056 99.3442 73.0801C97.2385 71.466 95.1775 71.0485 92.5972 70.6777C90.0489 70.3116 86.8641 69.9917 83.5288 68.1221C79.0366 65.6036 74.6165 61.0054 71.4224 57.2314C69.9609 55.5047 68.7158 53.8967 67.7856 52.6523C66.9407 53.0318 66.0043 53.2461 65.0181 53.2461C61.2831 53.2457 58.2554 50.2175 58.2554 46.4824C58.2554 42.7473 61.2831 39.7191 65.0181 39.7188C68.7534 39.7188 71.7817 42.7471 71.7817 46.4824C71.7817 47.4735 71.5661 48.4136 71.1831 49.2617C71.223 49.3159 71.2637 49.3716 71.3052 49.4277C72.2134 50.6559 73.5079 52.3409 75.0493 54.1621C78.187 57.8693 82.1487 61.9013 85.8521 63.9775C88.2737 65.335 90.521 65.5801 93.2729 65.9756C95.9928 66.3664 99.1027 66.9086 102.235 69.3096C102.939 69.8492 103.572 70.6018 104.117 71.3525C104.682 72.1317 105.25 73.0456 105.801 74.0137C106.904 75.9507 108.015 78.2384 108.998 80.3984C109.509 81.5241 109.991 82.6259 110.423 83.6396H110.981V49.6445C108.418 48.6824 106.593 46.2113 106.593 43.3125C106.593 39.5773 109.622 36.549 113.357 36.5488Z" fill="white"/>
<rect x="78.127" y="88.2617" width="73.6946" height="45.4414" rx="4" fill="#0090FF"/>
</g>
<defs>
<clipPath id="clip0_76_75">
<rect width="227" height="227" fill="white"/>
</clipPath>
</defs>
</svg>
